<svg version="1.2" baseProfile="tiny-ps" xmlns="http://www.w3.org/2000/svg" viewBox="0 0 1545 393" width="1545" height="393">
	<title>Toast_logo-svg</title>
	<style>
		tspan { white-space:pre }
		.shp0 { fill: #ff4c00 } 
	</style>
	<path id="Layer" fill-rule="evenodd" class="shp0" d="M550.26 365.88C506.79 365.88 483.27 343.73 483.27 302.4L483.27 181.19L468.11 181.19C460.88 181.1 453.91 178.14 448.86 172.99C443.81 167.85 441.02 160.96 441.19 153.81C441.54 139.42 453.48 127.91 468.11 127.82L483.27 127.82L483.27 91.72C484.58 75.68 498.16 63.21 514.54 63.21C530.92 63.21 544.59 75.59 545.81 91.72L545.81 127.82L570.21 127.82C573.66 127.92 577.06 128.68 580.22 130.07C583.38 131.45 586.25 133.42 588.68 135.89C591.1 138.35 593.02 141.26 594.35 144.45C595.68 147.64 596.38 151.05 596.43 154.51C596.38 157.96 595.68 161.38 594.35 164.57C593.02 167.76 591.1 170.66 588.68 173.12C586.25 175.59 583.38 177.56 580.22 178.95C577.06 180.33 573.66 181.09 570.21 181.19L545.81 181.19L545.81 286C545.81 304.32 557.57 311.47 567.33 311.47L572.73 311.47C590.33 311.47 600.17 322.98 600.17 337.97C600.17 352.97 590.85 365.88 550.26 365.88L550.26 365.88Z" />
	<path id="Layer" fill-rule="evenodd" class="shp0" d="M621.17 243.71C621.17 177.88 668.21 122.07 745.82 122.07C824.05 122.07 871 177.88 871 243.71C871.52 260.16 868.62 276.55 862.47 291.81C856.32 307.08 847.07 320.9 835.29 332.39C823.52 343.89 809.48 352.8 794.08 358.56C778.67 364.33 762.24 366.82 745.82 365.88C668.12 365.88 621.17 310.07 621.17 243.71ZM745.82 176.39C707.14 176.39 685.71 207.61 685.71 243.71C685.71 279.81 707.23 311.64 745.82 311.64C784.41 311.64 806.45 280.42 806.45 243.71C806.45 207.61 784.41 176.39 745.82 176.39ZM1090.43 363L1085.55 363C1080.68 363 1058.64 359.16 1058.64 336.06C1042.52 354.8 1014.73 365.88 983.9 365.88C946.26 365.88 901.75 340.85 901.75 288.88C901.75 234.56 946.26 213.89 983.9 213.89C1015.26 213.89 1043.04 224 1058.64 242.23L1058.64 210.92C1058.64 187.38 1038.08 171.95 1006.81 171.95C1002.17 171.85 997.53 172.1 992.92 172.69C988.32 173.27 983.77 174.2 979.3 175.46C974.84 176.73 970.47 178.32 966.24 180.22C962.01 182.13 957.92 184.35 954.02 186.86C953.17 187.37 952.29 187.83 951.39 188.23C950.49 188.64 949.56 188.98 948.61 189.27C947.67 189.56 946.7 189.78 945.73 189.95C944.75 190.11 943.77 190.22 942.78 190.26C929.71 190.08 919.26 179.53 919.26 166.71C919.28 165.66 919.36 164.61 919.52 163.56C919.67 162.52 919.89 161.49 920.18 160.48C920.46 159.46 920.81 158.47 921.23 157.5C921.64 156.53 922.12 155.59 922.66 154.68C937.29 131.57 990.08 121.98 1017.43 121.98C1071.18 121.98 1120.57 143.17 1120.57 209.96L1120.57 332.66C1120.66 349.22 1107.16 362.83 1090.26 362.91L1090.43 363ZM1058.64 275.45C1048.36 262.02 1028.85 255.22 1008.81 255.22C984.33 255.22 964.3 267.6 964.3 290.36C964.3 311.99 984.33 324.55 1008.81 324.55C1028.85 324.55 1048.36 317.83 1058.64 304.32L1058.64 275.45Z" />
	<path id="Layer" fill-rule="evenodd" class="shp0" d="M1267.44 365.88C1236.69 365.88 1187.3 355.76 1172.67 335.01C1169.79 331.26 1168.22 326.73 1168.31 322.02C1168.4 318.66 1169.13 315.36 1170.47 312.28C1171.81 309.2 1173.72 306.41 1176.11 304.06C1178.5 301.71 1181.32 299.84 1184.42 298.55C1187.52 297.26 1190.83 296.59 1194.18 296.55C1198.71 296.55 1203.07 297.78 1206.9 300.13C1225.46 310.68 1249.93 318.88 1270.4 318.88C1297.32 318.88 1310.04 308.33 1310.04 293.85C1310.04 255.4 1169.7 286.61 1169.7 195.23C1169.7 156.25 1204.46 122.15 1266.48 122.15C1297.23 122.15 1339.31 131.83 1352.55 150.49C1353.18 151.35 1353.74 152.25 1354.23 153.19C1354.71 154.13 1355.12 155.11 1355.46 156.11C1355.79 157.12 1356.04 158.15 1356.21 159.19C1356.38 160.24 1356.47 161.29 1356.47 162.35C1356.03 175.26 1345.23 185.55 1332.08 185.46C1331.06 185.46 1330.04 185.4 1329.03 185.28C1328.02 185.16 1327.01 184.98 1326.02 184.74C1325.03 184.5 1324.06 184.19 1323.11 183.83C1322.15 183.47 1321.22 183.06 1320.32 182.58C1316.26 180.31 1312.06 178.3 1307.74 176.57C1303.43 174.83 1299.01 173.37 1294.51 172.19C1290.01 171.02 1285.44 170.13 1280.83 169.53C1276.22 168.94 1271.57 168.64 1266.92 168.63C1244.45 168.63 1229.81 178.75 1229.81 191.74C1229.81 226.36 1369.62 197.5 1369.62 291.24C1369.62 333.61 1332.95 365.79 1267.44 365.79L1267.44 365.88ZM1494.63 365.88C1494.64 365.88 1494.66 365.88 1494.68 365.88C1494.69 365.88 1494.7 365.88 1494.72 365.88L1494.63 365.88ZM1427.73 302.4L1427.73 181.19L1412.57 181.19C1405.34 181.1 1398.37 178.14 1393.32 172.99C1388.27 167.85 1385.48 160.96 1385.65 153.81C1386 139.42 1397.94 127.91 1412.57 127.82L1427.73 127.82L1427.73 91.72C1428.08 87.85 1429.15 84.09 1430.88 80.61C1432.61 77.13 1434.97 74.01 1437.84 71.39C1440.71 68.78 1444.03 66.72 1447.65 65.32C1451.27 63.92 1455.12 63.2 1459 63.21C1475.38 63.21 1489.05 75.59 1490.27 91.72L1490.27 127.82L1514.75 127.82C1518.2 127.92 1521.6 128.68 1524.77 130.07C1527.93 131.45 1530.8 133.42 1533.22 135.89C1535.64 138.35 1537.57 141.26 1538.9 144.45C1540.22 147.64 1540.93 151.05 1540.97 154.51C1540.93 157.96 1540.22 161.38 1538.9 164.57C1537.57 167.76 1535.64 170.66 1533.22 173.12C1530.8 175.59 1527.93 177.56 1524.77 178.95C1521.6 180.33 1518.2 181.09 1514.75 181.19L1490.27 181.19L1490.27 286C1490.27 304.32 1502.03 311.47 1511.79 311.47L1517.19 311.47C1534.79 311.47 1544.54 322.98 1544.54 337.97C1544.54 352.97 1535.32 365.87 1494.68 365.88C1451.23 365.87 1427.73 343.72 1427.73 302.4Z" />
	<path id="Layer" fill-rule="evenodd" class="shp0" d="M401.3 270.39C401.3 273.18 401.3 276.15 400.95 279.03C400.95 306.23 400.69 333.96 394.68 360.65C388.32 388.72 352.95 386.63 331.7 386.46C291.36 386.02 251.47 376.52 211.22 375.47C182.65 374.69 154.16 379.92 125.94 383.23C100.33 386.28 72.54 394.74 46.93 391.17C15.48 386.63 6.51 346 3.81 318.7C-0.46 274.58 -3.07 239.26 12.61 184.33C17.83 166.1 25.94 152.5 37 137.5L28.81 128.96C27.44 127.59 26.14 126.16 24.91 124.66C23.68 123.17 22.53 121.61 21.45 120C20.38 118.39 19.38 116.73 18.47 115.02C17.56 113.31 16.74 111.56 16 109.77C5.12 80.91 29.86 55.01 51.37 41.76C72.51 29.26 95.11 19.45 118.67 12.55C142.23 5.65 166.56 1.72 191.09 0.85C215.62 -0.02 240.16 2.17 264.15 7.38C288.14 12.58 311.38 20.76 333.35 31.73C357.13 44.2 381.09 63.03 391.19 89.54C398.86 109.77 400.51 137.76 378.82 149.1C378.23 149.29 377.63 149.45 377.03 149.56C376.42 149.67 375.8 149.73 375.18 149.75C374.56 149.78 373.94 149.75 373.33 149.69C372.78 149.63 372.23 149.54 371.69 149.41C390.27 154.04 396.08 176.1 397.99 193.31C400.6 218.86 401.73 244.58 401.38 270.31L401.3 270.39ZM371.5 149.36C371.57 149.38 371.63 149.39 371.69 149.41C371.63 149.39 371.57 149.38 371.5 149.36ZM355.3 316.44C355.68 315.59 356.04 314.73 356.36 313.86C356.69 312.99 356.98 312.11 357.25 311.22C357.52 310.33 357.76 309.43 357.98 308.53C358.19 307.62 358.37 306.71 358.53 305.8C359.95 297.48 361.08 289.11 361.93 280.72C362.77 272.32 363.33 263.9 363.59 255.46C363.85 247.03 363.82 238.58 363.5 230.15C363.18 221.72 362.57 213.3 361.66 204.91C359.4 183.98 354.08 154.51 333.44 144.74C366.98 125.47 331.09 86.84 312.62 75.59C253.3 39.58 165.49 36.79 102.68 64.86C84.74 72.8 51.89 96.08 65.05 123.55C68.53 130.79 74.72 133.66 79.86 138.98C79.33 138.46 69.14 149.01 62.26 166.45C57.21 178.49 53.38 191.04 51.02 203.95C50.07 209.15 49.22 214.38 48.49 219.62C47.75 224.86 47.12 230.12 46.59 235.39C46.07 240.65 45.65 245.93 45.35 251.21C45.04 256.5 44.84 261.79 44.75 267.08C45.01 290.54 48.41 318.35 67.66 334.66C85 349.4 111.74 338.32 130.9 334.14C156.51 328.47 182.56 323.5 208.87 324.28L297.29 334.84C317.06 336.49 345.37 339.02 355.39 316.44L355.3 316.44Z" />
</svg>